<?xml version="1.0" encoding="utf-8"?>
<!-- Generator: Adobe Illustrator 23.0.1, SVG Export Plug-In . SVG Version: 6.00 Build 0)  -->
<svg version="1.1" id="Layer_1" xmlns="http://www.w3.org/2000/svg" xmlns:xlink="http://www.w3.org/1999/xlink" x="0px" y="0px"
	 viewBox="0 0 161.1 37.5" style="enable-background:new 0 0 161.1 37.5;" xml:space="preserve">
<style type="text/css">
	.st0{fill:#FFFFFF;}
</style>
<rect x="91.7" y="12.8" width="2.9" height="5"/>
<rect x="91.7" y="19.2" width="2.9" height="5.5"/>
<path d="M94.7,0v11.2h-6.3c-0.2,0-0.3,0.1-0.3,0.3v1.1c0,0.2,0.1,0.3,0.3,0.3h1.6v11.9h-1.6c-0.2,0-0.3,0.1-0.3,0.3V26
	c0,0.2,0.1,0.3,0.3,0.3h6.3v11.2H0V0H94.7z"/>
<g>
	<path class="st0" d="M17.8,26.3h-5c-0.2,0-0.3-0.1-0.3-0.3V25c0-0.2,0.1-0.3,0.3-0.3h1.6V12.8h-1.6c-0.2,0-0.3-0.1-0.3-0.3v-1.1
		c0-0.2,0.1-0.3,0.3-0.3h5c0.2,0,0.3,0.1,0.3,0.3v1.1c0,0.2-0.1,0.3-0.3,0.3h-1.6v11.9h1.6c0.2,0,0.3,0.1,0.3,0.3V26
		C18.1,26.2,18,26.3,17.8,26.3z"/>
	<path class="st0" d="M34,26.3h-0.8c-0.5,0-0.8-0.3-1-0.8l-2.4-10.7h-0.1l-2.4,10.7c-0.1,0.6-0.5,0.8-1,0.8h-0.8
		c-0.5,0-0.8-0.3-1-0.8l-3.8-12.7h-1.3c-0.2,0-0.3-0.1-0.3-0.3v-1.1c0-0.2,0.1-0.3,0.3-0.3h4.7c0.2,0,0.3,0.1,0.3,0.3v1.1
		c0,0.2-0.1,0.3-0.3,0.3h-1.5l3.3,11.3H26l2.9-12.9h1.7l2.9,12.9h0.1l3.3-11.3h-1.5c-0.2,0-0.3-0.1-0.3-0.3v-1.1
		c0-0.2,0.1-0.3,0.3-0.3h4.7c0.2,0,0.3,0.1,0.3,0.3v1.1c0,0.2-0.1,0.3-0.3,0.3h-1.3L35,25.5C34.8,26,34.5,26.3,34,26.3z"/>
	<path class="st0" d="M47.4,26.3h-6c-0.2,0-0.3-0.1-0.3-0.3V25c0-0.2,0.1-0.3,0.3-0.3H43V12.8h-1.6c-0.2,0-0.3-0.1-0.3-0.3v-1.1
		c0-0.2,0.1-0.3,0.3-0.3h5.7c2.3,0,4.2,0.7,5.5,2c1.4,1.3,2.1,3.2,2.1,5.5s-0.7,4.2-2,5.5C51.4,25.6,49.7,26.3,47.4,26.3z
		 M44.9,24.7h2.1c3.9,0,5.8-2,5.8-5.9c0-1.9-0.5-3.4-1.5-4.4c-1-1-2.5-1.6-4.4-1.6h-2V24.7z"/>
	<path class="st0" d="M67.5,26.3H56.3c-0.2,0-0.3-0.1-0.3-0.3V25c0-0.2,0.1-0.3,0.3-0.3h1.6V12.8h-1.6c-0.2,0-0.3-0.1-0.3-0.3v-1.1
		c0-0.2,0.1-0.3,0.3-0.3h11.2c0.2,0,0.3,0.1,0.3,0.3v3.4c0,0.2-0.1,0.3-0.3,0.3h-1.1c-0.2,0-0.3-0.1-0.3-0.3v-2.1h-6.3V18H65
		c0.2,0,0.3,0.1,0.3,0.3v1.1c0,0.2-0.1,0.3-0.3,0.3h-5.3v5.1H66v-2.1c0-0.2,0.1-0.3,0.3-0.3h1.1c0.2,0,0.3,0.1,0.3,0.3V26
		C67.7,26.2,67.6,26.3,67.5,26.3z"/>
	<path class="st0" d="M82.5,26.3h-1.8c-0.5,0-0.9-0.3-1.3-1l-2-4c-0.2-0.4-0.3-0.6-0.5-0.8s-0.5-0.3-0.8-0.3h-2.7v4.5h1.9
		c0.2,0,0.3,0.1,0.3,0.3V26c0,0.2-0.1,0.3-0.3,0.3H70c-0.2,0-0.3-0.1-0.3-0.3V25c0-0.2,0.1-0.3,0.3-0.3h1.6V12.8H70
		c-0.2,0-0.3-0.1-0.3-0.3v-1.1c0-0.2,0.1-0.3,0.3-0.3h6.5c1.5,0,2.7,0.4,3.7,1.2c0.9,0.8,1.4,1.9,1.4,3.3c0,2.2-1,3.6-3.1,4.1
		c0.3,0.2,0.6,0.7,1,1.4l1.8,3.4h1.3c0.2,0,0.3,0.1,0.3,0.3V26C82.7,26.2,82.7,26.3,82.5,26.3z M73.4,18.7h2.7c2.4,0,3.6-1,3.6-2.9
		c0-2-1.2-3-3.6-3h-2.7V18.7z"/>
	<path d="M97.6,18.4c1.3-0.7,1.9-1.8,1.9-3.2c0-1.2-0.4-2.2-1.2-2.9c-0.8-0.7-1.9-1.1-3.3-1.1h-0.4v1.6h0c0.8,0,1.5,0.2,2.1,0.6
		c0.6,0.4,0.8,1,0.8,1.9s-0.3,1.5-0.8,1.9c-0.5,0.4-1.2,0.6-1.9,0.6h-0.3v1.4h0.4c2.3,0,3.4,0.9,3.4,2.6c0,1-0.3,1.7-0.9,2.2
		c-0.6,0.5-1.5,0.7-2.6,0.7h-0.3v1.6h0.4c1.7,0,3-0.4,3.9-1.2c0.9-0.8,1.3-1.8,1.3-3.1C100.3,20.1,99.4,18.9,97.6,18.4z"/>
	<path d="M116.3,26.3h-4.7c-0.2,0-0.3-0.1-0.3-0.3V25c0-0.2,0.1-0.3,0.3-0.3h1.5l-1.4-3.6h-5.9l-1.4,3.6h1.5c0.2,0,0.3,0.1,0.3,0.3
		V26c0,0.2-0.1,0.3-0.3,0.3h-4.7c-0.2,0-0.3-0.1-0.3-0.3V25c0-0.2,0.1-0.3,0.3-0.3h1.4l4.5-11.9H106c-0.2,0-0.3-0.1-0.3-0.3v-1.1
		c0-0.2,0.1-0.3,0.3-0.3h2.9c0.3,0,0.6,0.1,0.8,0.2c0.2,0.1,0.3,0.4,0.5,0.7l4.8,12.6h1.4c0.2,0,0.3,0.1,0.3,0.3V26
		C116.5,26.2,116.5,26.3,116.3,26.3z M111.1,19.6l-2.3-6.2h-0.1l-2.4,6.2H111.1z"/>
	<path d="M129,26.3h-11.5c-0.2,0-0.3-0.1-0.3-0.3V25c0-0.2,0.1-0.3,0.3-0.3h1.6V12.8h-1.6c-0.2,0-0.3-0.1-0.3-0.3v-1.1
		c0-0.2,0.1-0.3,0.3-0.3h5c0.2,0,0.3,0.1,0.3,0.3v1c0,0.2-0.1,0.3-0.3,0.3H121v11.9h6.7v-2.1c0-0.2,0.1-0.3,0.3-0.3h1.1
		c0.2,0,0.3,0.1,0.3,0.3V26C129.3,26.2,129.2,26.3,129,26.3z"/>
	<path d="M135.8,26.3h-5c-0.2,0-0.3-0.1-0.3-0.3V25c0-0.2,0.1-0.3,0.3-0.3h1.6V12.8h-1.6c-0.2,0-0.3-0.1-0.3-0.3v-1.1
		c0-0.2,0.1-0.3,0.3-0.3h5c0.2,0,0.3,0.1,0.3,0.3v1.1c0,0.2-0.1,0.3-0.3,0.3h-1.6v11.9h1.6c0.2,0,0.3,0.1,0.3,0.3V26
		C136.1,26.2,136,26.3,135.8,26.3z"/>
	<path d="M149.4,26.3h-11.2c-0.2,0-0.3-0.1-0.3-0.3V25c0-0.2,0.1-0.3,0.3-0.3h1.6V12.8h-1.6c-0.2,0-0.3-0.1-0.3-0.3v-1.1
		c0-0.2,0.1-0.3,0.3-0.3h11.2c0.2,0,0.3,0.1,0.3,0.3v3.4c0,0.2-0.1,0.3-0.3,0.3h-1.1c-0.2,0-0.3-0.1-0.3-0.3v-2.1h-6.3V18h5.3
		c0.2,0,0.3,0.1,0.3,0.3v1.1c0,0.2-0.1,0.3-0.3,0.3h-5.3v5.1h6.3v-2.1c0-0.2,0.1-0.3,0.3-0.3h1.1c0.2,0,0.3,0.1,0.3,0.3V26
		C149.7,26.2,149.6,26.3,149.4,26.3z"/>
</g>
</svg>
