<svg id="Layer_1" data-name="Layer 1" xmlns="http://www.w3.org/2000/svg" viewBox="0 0 149.72 37.51"><defs><style>.cls-1{fill:#fff;}</style></defs><title>logo-white</title><rect class="cls-1" x="91.74" y="12.79" width="2.93" height="5.04"/><rect class="cls-1" x="91.74" y="19.22" width="2.93" height="5.5"/><path class="cls-1" d="M51.27,14.37a5.79,5.79,0,0,0-4.4-1.58h-2V24.72h2.08q5.84,0,5.84-5.94A6.14,6.14,0,0,0,51.27,14.37Zm0,0a5.79,5.79,0,0,0-4.4-1.58h-2V24.72h2.08q5.84,0,5.84-5.94A6.14,6.14,0,0,0,51.27,14.37Zm0,0a5.79,5.79,0,0,0-4.4-1.58h-2V24.72h2.08q5.84,0,5.84-5.94A6.14,6.14,0,0,0,51.27,14.37Zm24.86-1.58H73.44v5.94h2.69q3.57,0,3.57-2.91T76.13,12.79Zm0,0H73.44v5.94h2.69q3.57,0,3.57-2.91T76.13,12.79ZM51.27,14.37a5.79,5.79,0,0,0-4.4-1.58h-2V24.72h2.08q5.84,0,5.84-5.94A6.14,6.14,0,0,0,51.27,14.37Zm37-3.15h6.35V0H0V37.51H94.67V26.29H88.32c-.19,0-.28-.08-.28-.25V25c0-.17.09-.25.28-.25h1.59V12.79H88.32c-.19,0-.28-.08-.28-.25V11.47C88,11.3,88.13,11.22,88.32,11.22ZM18.06,12.54c0,.17-.09.25-.27.25H16.17V24.72h1.62c.18,0,.27.08.27.25V26c0,.17-.09.25-.27.25h-5c-.18,0-.27-.08-.27-.25V25c0-.17.09-.25.27-.25h1.6V12.79h-1.6c-.18,0-.27-.08-.27-.25V11.47c0-.17.09-.25.27-.25h5c.18,0,.27.08.27.25Zm22.39,0a.22.22,0,0,1-.25.25H38.85L35,25.45a1,1,0,0,1-1,.84h-.8a1,1,0,0,1-1-.84L29.8,14.79h-.06l-2.4,10.66a1,1,0,0,1-1,.84h-.78a1,1,0,0,1-1-.84L20.71,12.79H19.39c-.19,0-.28-.08-.28-.25V11.47c0-.17.09-.25.28-.25h4.72c.18,0,.27.08.27.25v1.07c0,.17-.09.25-.27.25H22.64L25.9,24.07H26l2.92-12.85h1.68l2.94,12.85h.13l3.25-11.28H35.45a.22.22,0,0,1-.25-.25V11.47a.22.22,0,0,1,.25-.25H40.2a.22.22,0,0,1,.25.25ZM52.73,24.27a7,7,0,0,1-5.29,2h-6a.22.22,0,0,1-.25-.25V25a.22.22,0,0,1,.25-.25H43V12.79H41.41a.22.22,0,0,1-.25-.25V11.47a.22.22,0,0,1,.25-.25h5.67a7.59,7.59,0,0,1,5.55,2,7.36,7.36,0,0,1,2.06,5.51A7.62,7.62,0,0,1,52.73,24.27Zm15-9.42c0,.18-.09.27-.28.27H66.32c-.17,0-.25-.09-.25-.27V12.79H59.73V18H65c.18,0,.27.08.27.25v1.07c0,.17-.09.25-.27.25H59.73v5.15h6.32V22.66c0-.17.09-.25.27-.25h1.13c.19,0,.28.08.28.25V26c0,.17-.09.25-.28.25H56.3c-.18,0-.27-.08-.27-.25V25c0-.17.09-.25.27-.25h1.6V12.79H56.3c-.18,0-.27-.08-.27-.25V11.47c0-.17.09-.25.27-.25H67.45c.19,0,.28.08.28.25ZM82.74,26a.22.22,0,0,1-.25.25H80.66c-.5,0-.92-.33-1.26-1l-2-4a2.4,2.4,0,0,0-.54-.78,1.24,1.24,0,0,0-.78-.28H73.44v4.5h1.89a.22.22,0,0,1,.25.25V26a.22.22,0,0,1-.25.25H70c-.19,0-.28-.08-.28-.25V25c0-.17.09-.25.28-.25h1.59V12.79H70c-.19,0-.28-.08-.28-.25V11.47c0-.17.09-.25.28-.25h6.46a5.49,5.49,0,0,1,3.66,1.18,4.13,4.13,0,0,1,1.4,3.35,3.84,3.84,0,0,1-3.08,4.12,5,5,0,0,1,1,1.41l1.77,3.44h1.28a.22.22,0,0,1,.25.25Zm-3-10.22q0-3-3.57-3H73.44v5.94h2.69Q79.7,18.73,79.7,15.82Zm-32.83-3h-2V24.72h2.08q5.84,0,5.84-5.94a6.14,6.14,0,0,0-1.51-4.41A5.79,5.79,0,0,0,46.87,12.79Zm4.4,1.58a5.79,5.79,0,0,0-4.4-1.58h-2V24.72h2.08q5.84,0,5.84-5.94A6.14,6.14,0,0,0,51.27,14.37Zm0,0a5.79,5.79,0,0,0-4.4-1.58h-2V24.72h2.08q5.84,0,5.84-5.94A6.14,6.14,0,0,0,51.27,14.37Z"/><path class="cls-1" d="M97.64,18.42a3.41,3.41,0,0,0,1.87-3.17,3.83,3.83,0,0,0-1.17-2.92,4.52,4.52,0,0,0-3.26-1.11h-.41v1.57h0a3.53,3.53,0,0,1,2.09.6,2.15,2.15,0,0,1,.85,1.9,2.24,2.24,0,0,1-.81,1.91,3.12,3.12,0,0,1-1.9.63h-.28v1.39h.41q3.4,0,3.4,2.62A2.56,2.56,0,0,1,97.55,24a4.32,4.32,0,0,1-2.6.7h-.28v1.57h.43A5.75,5.75,0,0,0,99,25.13,4,4,0,0,0,100.33,22,3.4,3.4,0,0,0,97.64,18.42Z"/><path class="cls-1" d="M116.29,26.29h-4.75a.22.22,0,0,1-.25-.25V25a.22.22,0,0,1,.25-.25H113l-1.36-3.63h-5.86l-1.37,3.63h1.47c.17,0,.26.08.26.25V26c0,.17-.09.25-.26.25h-4.72a.22.22,0,0,1-.25-.25V25a.22.22,0,0,1,.25-.25h1.41l4.51-11.93H106c-.19,0-.28-.08-.28-.25V11.47c0-.17.09-.25.28-.25h2.85a1.22,1.22,0,0,1,.77.21,1.72,1.72,0,0,1,.45.69l4.83,12.6h1.43a.22.22,0,0,1,.25.25V26A.22.22,0,0,1,116.29,26.29Zm-5.21-6.65-2.33-6.24h-.06l-2.36,6.24Z"/><path class="cls-1" d="M129,26.29H117.55c-.18,0-.27-.08-.27-.25V25c0-.17.09-.25.27-.25h1.59V12.79h-1.59c-.18,0-.27-.08-.27-.25V11.47c0-.17.09-.25.27-.25h5a.24.24,0,0,1,.27.27v1a.24.24,0,0,1-.27.27H121V24.72h6.68V22.66c0-.17.09-.25.27-.25h1.14a.22.22,0,0,1,.25.25V26A.24.24,0,0,1,129,26.29Z"/><path class="cls-1" d="M135.84,26.29h-5c-.18,0-.27-.08-.27-.25V25c0-.17.09-.25.27-.25h1.6V12.79h-1.6c-.18,0-.27-.08-.27-.25V11.47c0-.17.09-.25.27-.25h5c.18,0,.27.08.27.25v1.07c0,.17-.09.25-.27.25h-1.62V24.72h1.62c.18,0,.27.08.27.25V26C136.11,26.21,136,26.29,135.84,26.29Z"/><path class="cls-1" d="M149.45,26.29H138.3c-.19,0-.28-.08-.28-.25V25c0-.17.09-.25.28-.25h1.59V12.79H138.3c-.19,0-.28-.08-.28-.25V11.47c0-.17.09-.25.28-.25h11.15c.18,0,.27.08.27.25v3.38a.24.24,0,0,1-.27.27h-1.14c-.16,0-.25-.09-.25-.27V12.79h-6.34V18H147c.18,0,.28.08.28.25v1.07c0,.17-.1.25-.28.25h-5.31v5.15H148V22.66c0-.17.09-.25.27-.25h1.14c.18,0,.27.08.27.25V26C149.72,26.21,149.63,26.29,149.45,26.29Z"/></svg>